<?xml version="1.0" encoding="iso-8859-1"?>
<!-- Generator: Adobe Illustrator 19.0.0, SVG Export Plug-In . SVG Version: 6.00 Build 0)  -->
<svg version="1.1" id="Layer_1" xmlns="http://www.w3.org/2000/svg" xmlns:xlink="http://www.w3.org/1999/xlink" x="0px" y="0px"
	 viewBox="0 0 461.611 461.611" style="enable-background:new 0 0 461.611 461.611;" xml:space="preserve">
<g id="XMLID_236_">
	<g>
		<path d="M425.606,134.983H307.739V89.517c0-19.852-16.151-36.003-36.003-36.003H36.003C16.151,53.514,0,69.665,0,89.517v140.436
			c0,19.852,16.151,36.003,36.003,36.003h3.846l-13.943,23.045c-5.982,9.886-4.251,22.847,4.116,30.817
			c4.636,4.417,10.717,6.849,17.121,6.849c4.955,0,9.747-1.463,13.858-4.232l83.884-56.479h8.986v45.466
			c0,19.852,16.151,36.003,36.002,36.003h126.854l83.874,56.471c4.182,2.819,9.018,4.2,13.836,4.2c6.229,0,12.429-2.309,17.14-6.799
			c8.378-7.965,10.115-20.929,4.129-30.827l-13.943-23.045h3.845c19.852,0,36.003-16.151,36.003-36.003V170.986
			C461.608,151.134,445.458,134.983,425.606,134.983z M135.915,236.578L135.915,236.578l-74.168,49.937l30.215-49.938H36.003
			c-3.653,0-6.624-2.972-6.624-6.625V89.517c0-3.653,2.971-6.624,6.624-6.624h235.733c3.653,0,6.624,2.971,6.624,6.624v140.436
			c0,3.653-2.971,6.625-6.624,6.625H135.915z M425.606,318.046h-55.959l30.215,49.937l-74.168-49.937H189.872
			c-3.652,0-6.624-2.971-6.624-6.624v-45.466h88.488c19.852,0,36.003-16.151,36.003-36.003v-65.591h117.867
			c3.653,0,6.624,2.971,6.624,6.624v140.436h0C432.23,315.075,429.259,318.046,425.606,318.046z"/>
	</g>
</g>
<g>
</g>
<g>
</g>
<g>
</g>
<g>
</g>
<g>
</g>
<g>
</g>
<g>
</g>
<g>
</g>
<g>
</g>
<g>
</g>
<g>
</g>
<g>
</g>
<g>
</g>
<g>
</g>
<g>
</g>
</svg>
